<mxfile host="Electron" modified="2024-02-12T08:31:05.481Z" agent="Mozilla/5.0 (Macintosh; Intel Mac OS X 10_15_7) AppleWebKit/537.36 (KHTML, like Gecko) draw.io/22.1.18 Chrome/120.0.6099.199 Electron/28.1.2 Safari/537.36" etag="Ruq1pTt4Jgpo1Rhu2lbx" version="22.1.18" type="device">
  <diagram id="7onhE7s8I3OeBTNW9OX0" name="第 1 页">
    <mxGraphModel dx="852" dy="558" grid="0" gridSize="10" guides="1" tooltips="1" connect="1" arrows="1" fold="1" page="1" pageScale="1" pageWidth="827" pageHeight="1169" math="0" shadow="0">
      <root>
        <mxCell id="0" />
        <mxCell id="1" parent="0" />
        <mxCell id="9y_MhZ6LwUl3VcVE7A_6-1" value="" style="rounded=0;whiteSpace=wrap;html=1;strokeColor=none;fillColor=none;" parent="1" vertex="1">
          <mxGeometry x="146" y="103" width="625" height="357" as="geometry" />
        </mxCell>
        <mxCell id="LxJkTz2mR_KUnfyRF50h-3" value="" style="endArrow=none;html=1;rounded=0;fontSize=24;strokeWidth=2;fontFamily=Times New Roman;" parent="1" edge="1">
          <mxGeometry width="50" height="50" relative="1" as="geometry">
            <mxPoint x="200" y="240" as="sourcePoint" />
            <mxPoint x="600" y="240" as="targetPoint" />
          </mxGeometry>
        </mxCell>
        <mxCell id="LxJkTz2mR_KUnfyRF50h-4" value="&lt;span style=&quot;font-size: 24px;&quot;&gt;发送方&lt;/span&gt;" style="text;html=1;strokeColor=none;fillColor=none;align=center;verticalAlign=middle;whiteSpace=wrap;rounded=0;fontFamily=Times New Roman;" parent="1" vertex="1">
          <mxGeometry x="665" y="220" width="90" height="30" as="geometry" />
        </mxCell>
        <mxCell id="LxJkTz2mR_KUnfyRF50h-5" value="" style="endArrow=none;html=1;rounded=0;fontSize=24;strokeWidth=2;fontFamily=Times New Roman;" parent="1" edge="1">
          <mxGeometry width="50" height="50" relative="1" as="geometry">
            <mxPoint x="200" y="330" as="sourcePoint" />
            <mxPoint x="600" y="330" as="targetPoint" />
          </mxGeometry>
        </mxCell>
        <mxCell id="LxJkTz2mR_KUnfyRF50h-6" value="&lt;span style=&quot;font-size: 24px;&quot;&gt;接收方&lt;/span&gt;" style="text;html=1;strokeColor=none;fillColor=none;align=center;verticalAlign=middle;whiteSpace=wrap;rounded=0;fontFamily=Times New Roman;" parent="1" vertex="1">
          <mxGeometry x="665" y="310" width="90" height="30" as="geometry" />
        </mxCell>
        <mxCell id="LxJkTz2mR_KUnfyRF50h-11" value="" style="endArrow=none;html=1;rounded=0;fontSize=24;exitX=0.5;exitY=0;exitDx=0;exitDy=0;fontFamily=Times New Roman;" parent="1" edge="1">
          <mxGeometry width="50" height="50" relative="1" as="geometry">
            <mxPoint x="230" y="346" as="sourcePoint" />
            <mxPoint x="230" y="310" as="targetPoint" />
          </mxGeometry>
        </mxCell>
        <mxCell id="LxJkTz2mR_KUnfyRF50h-12" value="&lt;font style=&quot;font-size: 14px;&quot;&gt;T0: Recv 被调用&lt;br style=&quot;font-size: 14px;&quot;&gt;缓存区无法被用户读写&lt;/font&gt;" style="text;html=1;strokeColor=none;fillColor=none;align=center;verticalAlign=middle;whiteSpace=wrap;rounded=0;fontSize=14;fontFamily=Times New Roman;" parent="1" vertex="1">
          <mxGeometry x="160" y="370" width="140" height="70" as="geometry" />
        </mxCell>
        <mxCell id="LxJkTz2mR_KUnfyRF50h-13" value="&lt;span style=&quot;font-size: 14px;&quot;&gt;T1: Send&lt;/span&gt;" style="text;html=1;strokeColor=none;fillColor=none;align=center;verticalAlign=middle;whiteSpace=wrap;rounded=0;fontSize=14;fontFamily=Times New Roman;" parent="1" vertex="1">
          <mxGeometry x="210" y="170" width="140" height="30" as="geometry" />
        </mxCell>
        <mxCell id="LxJkTz2mR_KUnfyRF50h-14" value="" style="endArrow=none;html=1;rounded=0;fontSize=24;exitX=0.5;exitY=0;exitDx=0;exitDy=0;fontFamily=Times New Roman;" parent="1" edge="1">
          <mxGeometry width="50" height="50" relative="1" as="geometry">
            <mxPoint x="281" y="257" as="sourcePoint" />
            <mxPoint x="281" y="221" as="targetPoint" />
          </mxGeometry>
        </mxCell>
        <mxCell id="LxJkTz2mR_KUnfyRF50h-15" value="" style="endArrow=none;html=1;rounded=0;fontSize=24;exitX=0.5;exitY=0;exitDx=0;exitDy=0;fontFamily=Times New Roman;" parent="1" edge="1">
          <mxGeometry width="50" height="50" relative="1" as="geometry">
            <mxPoint x="539" y="346" as="sourcePoint" />
            <mxPoint x="539" y="310" as="targetPoint" />
          </mxGeometry>
        </mxCell>
        <mxCell id="LxJkTz2mR_KUnfyRF50h-16" value="" style="endArrow=classic;html=1;rounded=0;fontSize=14;strokeWidth=2;fontFamily=Times New Roman;" parent="1" edge="1">
          <mxGeometry width="50" height="50" relative="1" as="geometry">
            <mxPoint x="174" y="150" as="sourcePoint" />
            <mxPoint x="644" y="150" as="targetPoint" />
          </mxGeometry>
        </mxCell>
        <mxCell id="LxJkTz2mR_KUnfyRF50h-17" value="时间轴" style="text;html=1;strokeColor=none;fillColor=none;align=center;verticalAlign=middle;whiteSpace=wrap;rounded=0;fontSize=24;fontFamily=Times New Roman;" parent="1" vertex="1">
          <mxGeometry x="369" y="109" width="90" height="30" as="geometry" />
        </mxCell>
        <mxCell id="LxJkTz2mR_KUnfyRF50h-18" value="&lt;span style=&quot;font-size: 14px;&quot;&gt;T2:&amp;nbsp; 缓存数据被发送&lt;br style=&quot;font-size: 14px;&quot;&gt;Send 返回&amp;nbsp;&lt;/span&gt;" style="text;html=1;strokeColor=none;fillColor=none;align=center;verticalAlign=middle;whiteSpace=wrap;rounded=0;fontSize=14;fontFamily=Times New Roman;" parent="1" vertex="1">
          <mxGeometry x="410" y="164" width="160" height="38" as="geometry" />
        </mxCell>
        <mxCell id="LxJkTz2mR_KUnfyRF50h-19" value="" style="endArrow=none;html=1;rounded=0;fontSize=24;exitX=0.5;exitY=0;exitDx=0;exitDy=0;fontFamily=Times New Roman;" parent="1" edge="1">
          <mxGeometry width="50" height="50" relative="1" as="geometry">
            <mxPoint x="480" y="257" as="sourcePoint" />
            <mxPoint x="480" y="221" as="targetPoint" />
          </mxGeometry>
        </mxCell>
        <mxCell id="LxJkTz2mR_KUnfyRF50h-20" value="&lt;font style=&quot;font-size: 14px;&quot;&gt;T3: 发送结束&lt;br style=&quot;font-size: 14px;&quot;&gt;&lt;/font&gt;" style="text;html=1;strokeColor=none;fillColor=none;align=center;verticalAlign=middle;whiteSpace=wrap;rounded=0;fontSize=14;fontFamily=Times New Roman;" parent="1" vertex="1">
          <mxGeometry x="469" y="360" width="140" height="30" as="geometry" />
        </mxCell>
        <mxCell id="LxJkTz2mR_KUnfyRF50h-22" value="&lt;font style=&quot;font-size: 14px;&quot;&gt;T4: 缓存区被填充&lt;br style=&quot;font-size: 14px;&quot;&gt;&lt;/font&gt;" style="text;html=1;strokeColor=none;fillColor=none;align=center;verticalAlign=middle;whiteSpace=wrap;rounded=0;fontSize=14;fontFamily=Times New Roman;" parent="1" vertex="1">
          <mxGeometry x="559" y="380" width="165" height="30" as="geometry" />
        </mxCell>
        <mxCell id="LxJkTz2mR_KUnfyRF50h-23" value="" style="endArrow=none;html=1;rounded=0;fontSize=24;exitX=0.5;exitY=0;exitDx=0;exitDy=0;fontFamily=Times New Roman;" parent="1" edge="1">
          <mxGeometry width="50" height="50" relative="1" as="geometry">
            <mxPoint x="549" y="346" as="sourcePoint" />
            <mxPoint x="549" y="310" as="targetPoint" />
          </mxGeometry>
        </mxCell>
        <mxCell id="LxJkTz2mR_KUnfyRF50h-24" value="" style="endArrow=classic;html=1;rounded=0;fontSize=24;exitX=0.5;exitY=0;exitDx=0;exitDy=0;fontFamily=Times New Roman;" parent="1" source="LxJkTz2mR_KUnfyRF50h-22" edge="1">
          <mxGeometry width="50" height="50" relative="1" as="geometry">
            <mxPoint x="809" y="560" as="sourcePoint" />
            <mxPoint x="549" y="350" as="targetPoint" />
          </mxGeometry>
        </mxCell>
        <mxCell id="LxJkTz2mR_KUnfyRF50h-25" value="" style="endArrow=classic;html=1;rounded=0;strokeWidth=2;fontSize=14;fontFamily=Times New Roman;" parent="1" edge="1">
          <mxGeometry width="50" height="50" relative="1" as="geometry">
            <mxPoint x="285" y="260" as="sourcePoint" />
            <mxPoint x="533" y="310" as="targetPoint" />
          </mxGeometry>
        </mxCell>
      </root>
    </mxGraphModel>
  </diagram>
</mxfile>
